# File created by Blade
# Date/Time:  Fri Jan 16 15:45:48 2015
# Frame Rate: 120.000 fps
#------------------------------------------------------
:FULLY-SPECIFIED
:DEGREES
3857
root -6.324749 35.263649 -10.290748 -0.553922 8.295099 -4.381877
Spine -10.597139 0.622554 1.901604
Head 13.508464 -25.597847 -5.184824
LeftShoulder -16.617244 12.042078 -16.306038
LeftArm 19.694098 13.064980 -67.108329
LeftForeArm 15.741425 0.000000 11.357176
LeftHand 2.829392 -0.000000 -9.495656
LeftHandThumb1 -26.253704 0.000000 33.147579
RightShoulder -11.411177 29.443406 -46.677802
RightArm 108.998650 61.481858 100.866849
RightForeArm 8.001515 -0.000000 118.456754
RightHand -4.934977 -0.000000 -68.927393
RightHandThumb1 -24.326973 -0.000000 -32.862282
LeftUpLeg 5.872908 6.325168 6.793162
LeftLeg -7.713945 -0.000000 0.000000
LeftFoot -12.644659 21.882025 -9.063606
LeftToeBase 23.080215 -0.000000 -0.000000
RightUpLeg 8.043512 -11.733316 2.883807
RightLeg -4.425797 -0.000000 0.000000
RightFoot -6.607465 -31.879781 5.277783
RightToeBase 13.004883 -0.000000 -0.000000
3858
root -6.323418 35.264158 -10.296126 -0.577236 8.305594 -4.377523
Spine -10.569749 0.700191 1.907921
Head 13.438052 -25.606826 -5.128463
LeftShoulder -16.615250 12.032324 -16.264433
LeftArm 19.695122 13.035459 -67.185975
LeftForeArm 15.762243 -0.000000 11.426043
LeftHand 2.771820 -0.000000 -9.439934
LeftHandThumb1 -26.253704 0.000000 33.147579
RightShoulder -11.418247 29.353150 -46.738177
RightArm 108.253507 61.625931 99.499585
RightForeArm 7.636023 -0.000000 117.496479
RightHand -4.963000 -0.000000 -68.864055
RightHandThumb1 -24.326973 -0.000000 -32.862282
LeftUpLeg 5.885891 6.333110 6.788348
LeftLeg -7.713137 -0.000000 0.000000
LeftFoot -12.637284 21.855281 -9.066450
LeftToeBase 23.076548 -0.000000 -0.000000
RightUpLeg 8.030560 -11.711609 2.877728
RightLeg -4.364206 -0.000000 0.000000
RightFoot -6.651635 -31.909694 5.268681
RightToeBase 13.091368 -0.000000 -0.000000
3859
root -6.320859 35.265561 -10.301407 -0.587455 8.313574 -4.376367
Spine -10.552197 0.728142 1.936717
Head 13.332195 -25.572483 -5.067256
LeftShoulder -16.672933 12.018788 -16.247131
LeftArm 19.709828 13.014929 -67.253490
LeftForeArm 15.726083 -0.000000 11.470470
LeftHand 2.778503 -0.000000 -9.404804
LeftHandThumb1 -26.253704 0.000000 33.147579
RightShoulder -11.412161 29.251793 -46.771667
RightArm 107.499695 61.764469 98.064732
RightForeArm 7.373747 0.000000 116.502267
RightHand -4.986005 -0.000000 -68.749417
RightHandThumb1 -24.326973 -0.000000 -32.862282
LeftUpLeg 5.892143 6.343483 6.782003
LeftLeg -7.726304 -0.000000 0.000000
LeftFoot -12.609421 21.841811 -9.081408
LeftToeBase 23.076694 -0.000000 -0.000000
RightUpLeg 8.000684 -11.708471 2.873812
RightLeg -4.298717 -0.000000 0.000000
RightFoot -6.682633 -31.933270 5.294004
RightToeBase 13.073642 -0.000000 -0.000000
3860
root -6.318913 35.266588 -10.307254 -0.609404 8.334077 -4.371929
Spine -10.514973 0.764543 1.964715
Head 13.222043 -25.578744 -5.073640
LeftShoulder -16.712325 12.043729 -16.227751
LeftArm 19.788622 13.045688 -67.296896
LeftForeArm 15.648416 0.000000 11.462998
LeftHand 2.769336 -0.000000 -9.350802
LeftHandThumb1 -26.253704 0.000000 33.147579
RightShoulder -11.410802 29.121031 -46.807683
RightArm 106.645774 61.948270 96.469392
RightForeArm 7.007376 -0.000000 115.450351
RightHand -5.124605 -0.000000 -68.295649
RightHandThumb1 -24.326973 -0.000000 -32.862282
LeftUpLeg 5.899121 6.335929 6.771277
LeftLeg -7.717035 -0.000000 0.000000
LeftFoot -12.574601 21.818764 -9.165775
LeftToeBase 22.839555 -0.000000 -0.000000
RightUpLeg 7.988579 -11.700060 2.865524
RightLeg -4.244644 -0.000000 0.000000
RightFoot -6.703680 -31.961124 5.309747
RightToeBase 13.078772 -0.000000 -0.000000
3861
root -6.317945 35.267164 -10.311857 -0.629492 8.362946 -4.369218
Spine -10.482307 0.788852 1.984163
Head 13.106692 -25.568514 -4.984941
LeftShoulder -16.749200 12.062445 -16.172810
LeftArm 19.820426 13.032514 -67.395441
LeftForeArm 15.649720 -0.000000 11.490015
LeftHand 2.756687 -0.000000 -9.328103
LeftHandThumb1 -26.253704 0.000000 33.147579
RightShoulder -11.425468 28.989699 -46.837598
RightArm 105.787008 62.126628 94.846173
RightForeArm 6.684834 0.000000 114.354923
RightHand -5.321077 -0.000000 -67.791027
RightHandThumb1 -24.326973 -0.000000 -32.862282
LeftUpLeg 5.905228 6.355767 6.771791
LeftLeg -7.725096 -0.000000 0.000000
LeftFoot -12.574232 21.787270 -9.080806
LeftToeBase 23.072454 -0.000000 -0.000000
RightUpLeg 7.980127 -11.696785 2.860729
RightLeg -4.193569 -0.000000 0.000000
RightFoot -6.741573 -31.983349 5.332060
RightToeBase 13.109356 -0.000000 -0.000000
3862
root -6.316828 35.267872 -10.318045 -0.648043 8.400256 -4.369095
Spine -10.437224 0.799388 2.020116
Head 12.966405 -25.560480 -4.941126
LeftShoulder -16.817778 12.062048 -16.139719
LeftArm 19.846742 12.959567 -67.513197
LeftForeArm 15.783117 -0.000000 11.524721
LeftHand 2.681783 0.000000 -9.470951
LeftHandThumb1 -26.253704 0.000000 33.147579
RightShoulder -11.451302 28.856726 -46.897202
RightArm 104.760834 62.411253 93.042992
RightForeArm 6.430158 -0.000000 113.247787
RightHand -5.242179 0.000000 -67.054042
RightHandThumb1 -24.326973 -0.000000 -32.862282
LeftUpLeg 5.903499 6.333443 6.768433
LeftLeg -7.722834 -0.000000 0.000000
LeftFoot -12.558206 21.772494 -9.078983
LeftToeBase 23.066246 -0.000000 -0.000000
RightUpLeg 7.964940 -11.745220 2.853871
RightLeg -4.135891 -0.000000 0.000000
RightFoot -6.769082 -31.963181 5.343620
RightToeBase 13.066307 -0.000000 -0.000000
3863
root -6.316547 35.268892 -10.323399 -0.656116 8.443502 -4.368212
Spine -10.415949 0.790149 2.040408
Head 12.869076 -25.560243 -4.891346
LeftShoulder -16.871985 12.031500 -16.074953
LeftArm 19.827214 12.947222 -67.606807
LeftForeArm 15.868527 -0.000000 11.554396
LeftHand 2.690408 -0.000000 -9.537692
LeftHandThumb1 -26.253704 0.000000 33.147579
RightShoulder -11.439069 28.676505 -46.880651
RightArm 103.732617 62.717271 91.117155
RightForeArm 6.163451 -0.000000 112.074082
RightHand -5.185410 -0.000000 -66.324667
RightHandThumb1 -24.326973 -0.000000 -32.862282
LeftUpLeg 5.888897 6.314398 6.765434
LeftLeg -7.715215 -0.000000 0.000000
LeftFoot -12.546226 21.746241 -9.088087
LeftToeBase 23.069749 -0.000000 -0.000000
RightUpLeg 7.946596 -11.761908 2.850162
RightLeg -4.089966 -0.000000 0.000000
RightFoot -6.788573 -31.971195 5.351983
RightToeBase 13.082422 -0.000000 -0.000000
3864
root -6.315655 35.269597 -10.329004 -0.666359 8.487841 -4.363589
Spine -10.387395 0.770880 2.064420
Head 12.761018 -25.539669 -4.845628
LeftShoulder -16.931004 12.051329 -16.032591
LeftArm 19.851157 12.895248 -67.709757
LeftForeArm 15.965417 -0.000000 11.571491
LeftHand 2.780579 0.000000 -9.266662
LeftHandThumb1 -26.253704 0.000000 33.147579
RightShoulder -11.439647 28.519249 -46.879568
RightArm 102.528849 63.039700 88.981537
RightForeArm 5.863113 -0.000000 110.893651
RightHand -5.188745 -0.000000 -65.463844
RightHandThumb1 -24.326973 -0.000000 -32.862282
LeftUpLeg 5.874404 6.300653 6.758633
LeftLeg -7.704641 -0.000000 0.000000
LeftFoot -12.533631 21.716927 -9.086636
LeftToeBase 23.083146 -0.000000 -0.000000
RightUpLeg 7.928752 -11.794213 2.842521
RightLeg -4.044165 -0.000000 0.000000
RightFoot -6.815646 -31.983755 5.356072
RightToeBase 13.104463 -0.000000 -0.000000
3865
root -6.314929 35.270442 -10.334873 -0.671528 8.533019 -4.363807
Spine -10.367861 0.743777 2.097654
Head 12.658847 -25.501331 -4.804092
LeftShoulder -16.991011 11.974395 -15.972025
LeftArm 19.792519 12.934243 -67.795253
LeftForeArm 16.005243 0.000000 11.569648
LeftHand 2.767297 0.000000 -9.144671
LeftHandThumb1 -26.253704 0.000000 33.147579
RightShoulder -11.408416 28.331699 -46.845849
RightArm 101.243165 63.422369 86.691812
RightForeArm 5.589648 0.000000 109.705822
RightHand -5.227383 -0.000000 -64.513972
RightHandThumb1 -24.326973 -0.000000 -32.862282
LeftUpLeg 5.858898 6.264924 6.753708
LeftLeg -7.694947 -0.000000 0.000000
LeftFoot -12.460839 21.697559 -9.145011
LeftToeBase 22.762882 -0.000000 -0.000000
RightUpLeg 7.909307 -11.825094 2.840866
RightLeg -4.006385 -0.000000 0.000000
RightFoot -6.835153 -31.986974 5.369302
RightToeBase 13.096777 -0.000000 -0.000000
3866
root -6.314402 35.271126 -10.340782 -0.670900 8.591683 -4.362190
Spine -10.352317 0.696811 2.130786
Head 12.538557 -25.449625 -4.769875
LeftShoulder -17.058779 11.952413 -15.927074
LeftArm 19.770772 13.091740 -67.801148
LeftForeArm 15.891048 0.000000 11.625889
LeftHand 2.742598 -0.000000 -9.036729
LeftHandThumb1 -26.253704 0.000000 33.147579
RightShoulder -11.395310 28.181110 -46.812473
RightArm 99.577171 63.836292 83.943547
RightForeArm 5.021331 -0.000000 108.492671
RightHand -5.442967 0.000000 -63.522438
RightHandThumb1 -24.326973 -0.000000 -32.862282
LeftUpLeg 5.827940 6.278889 6.751983
LeftLeg -7.688919 -0.000000 0.000000
LeftFoot -12.451253 21.647221 -9.045968
LeftToeBase 22.935428 -0.000000 -0.000000
RightUpLeg 7.893990 -11.843765 2.841322
RightLeg -3.989150 -0.000000 0.000000
RightFoot -6.850185 -32.023686 5.395402
RightToeBase 13.114835 -0.000000 -0.000000
3867
root -6.311629 35.271249 -10.348140 -0.675904 8.643667 -4.360631
Spine -10.331443 0.650383 2.174281
Head 12.438147 -25.354561 -4.731294
LeftShoulder -17.097185 12.128202 -15.927512
LeftArm 19.896138 12.952307 -67.890256
LeftForeArm 15.922582 0.000000 11.647454
LeftHand 2.722639 -0.000000 -9.110730
LeftHandThumb1 -26.253704 0.000000 33.147579
RightShoulder -11.395753 28.048324 -46.795816
RightArm 97.773411 64.201027 81.045200
RightForeArm 4.653968 -0.000000 107.261604
RightHand -5.517345 -0.000000 -62.702691
RightHandThumb1 -24.326973 -0.000000 -32.862282
LeftUpLeg 5.805746 6.255366 6.740841
LeftLeg -7.689170 -0.000000 0.000000
LeftFoot -12.473324 21.625798 -9.062669
LeftToeBase 23.068917 -0.000000 -0.000000
RightUpLeg 7.871698 -11.887381 2.834068
RightLeg -3.948104 -0.000000 0.000000
RightFoot -6.866669 -32.036878 5.380533
RightToeBase 13.159666 -0.000000 -0.000000
3868
root -6.310141 35.271435 -10.354041 -0.679671 8.704150 -4.354463
Spine -10.302806 0.605697 2.203583
Head 12.311649 -25.292800 -4.681087
LeftShoulder -17.213080 12.098232 -15.906651
LeftArm 19.926500 12.964541 -67.944315
LeftForeArm 15.943799 0.000000 11.631628
LeftHand 2.742798 -0.000000 -9.125968
LeftHandThumb1 -26.253704 0.000000 33.147579
RightShoulder -11.408363 27.870130 -46.774621
RightArm 95.603618 64.681498 77.704371
RightForeArm 4.348480 -0.000000 106.059312
RightHand -5.635249 -0.000000 -61.704990
RightHandThumb1 -24.326973 -0.000000 -32.862282
LeftUpLeg 5.783494 6.212501 6.726189
LeftLeg -7.676867 -0.000000 0.000000
LeftFoot -12.443950 21.594038 -9.133649
LeftToeBase 22.896252 -0.000000 -0.000000
RightUpLeg 7.861040 -11.913556 2.827246
RightLeg -3.924456 -0.000000 0.000000
RightFoot -6.877489 -32.054266 5.372065
RightToeBase 13.152563 -0.000000 -0.000000
3869
root -6.309567 35.270635 -10.360387 -0.675118 8.743443 -4.359959
Spine -10.285809 0.584829 2.252335
Head 12.206677 -25.230963 -4.654911
LeftShoulder -17.300488 12.078743 -15.881909
LeftArm 19.927874 12.936673 -68.018215
LeftForeArm 16.077889 0.000000 11.613276
LeftHand 2.745627 -0.000000 -9.133029
LeftHandThumb1 -26.253704 0.000000 33.147579
RightShoulder -11.457983 27.706447 -46.812736
RightArm 93.058596 65.154884 74.004745
RightForeArm 4.088979 -0.000000 104.846597
RightHand -5.514324 -0.000000 -61.002037
RightHandThumb1 -24.326973 -0.000000 -32.862282
LeftUpLeg 5.760695 6.205214 6.727211
LeftLeg -7.682501 -0.000000 0.000000
LeftFoot -12.432438 21.571129 -9.107191
LeftToeBase 22.880616 -0.000000 -0.000000
RightUpLeg 7.838303 -11.918863 2.835275
RightLeg -3.903313 -0.000000 0.000000
RightFoot -6.879508 -32.084615 5.366629
RightToeBase 13.112010 -0.000000 -0.000000
